HIERARCHY
ROOT Hips
{
  OFFSET 0.0000 0.0000 0.0000
  CHANNELS 6 Xposition Yposition Zposition Zrotation Xrotation Yrotation
  JOINT LeftHip
  {
    OFFSET 4.5000 0.0000 0.0000
    CHANNELS 3 Zrotation Xrotation Yrotation
    JOINT LeftKnee
    {
      OFFSET -0.0000 -14.5000 0.0000
      CHANNELS 3 Zrotation Xrotation Yrotation
      JOINT LeftAnkle
      {
        OFFSET -0.0000 -15.0000 0.0000
        CHANNELS 3 Zrotation Xrotation Yrotation
        End Site
        {
            OFFSET 0.0000 -4.0000 -2.5000
        }
      }
    }
  }
  JOINT RightHip
  {
    OFFSET -4.7500 -0.0000 0.0000
    CHANNELS 3 Zrotation Xrotation Yrotation
    JOINT RightKnee
    {
      OFFSET 0.0000 -14.5000 -0.0000
      CHANNELS 3 Zrotation Xrotation Yrotation
      JOINT RightAnkle
      {
        OFFSET 0.0000 -15.0000 0.0000
        CHANNELS 3 Zrotation Xrotation Yrotation
        End Site
        {
            OFFSET 0.0000 -4.0000 -2.5000
        }
      }
    }
  }
  JOINT Chest
  {
    OFFSET 0.0000 3.0000 -1.0000
    CHANNELS 3 Zrotation Xrotation Yrotation
    JOINT LeftCollar
    {
      OFFSET -0.0000 16.0000 1.0000
      CHANNELS 3 Zrotation Xrotation Yrotation
      JOINT LeftShoulder
      {
        OFFSET 6.5000 0.0000 -0.0000
        CHANNELS 3 Zrotation Xrotation Yrotation
        JOINT LeftElbow
        {
          OFFSET 0.0000 -9.0000 0.0000
          CHANNELS 3 Zrotation Xrotation Yrotation
          JOINT LeftWrist
          {
            OFFSET 0.0000 -9.5000 0.0000
            CHANNELS 3 Zrotation Xrotation Yrotation
            End Site
            {
                OFFSET -0.0000 -5.0000 0.0000
            }
          }
        }
      }
    }
    JOINT RightCollar
    {
      OFFSET -0.0000 16.0000 1.0000
      CHANNELS 3 Zrotation Xrotation Yrotation
      JOINT RightShoulder
      {
        OFFSET -6.5000 0.0000 -0.0000
        CHANNELS 3 Zrotation Xrotation Yrotation
        JOINT RightElbow
        {
          OFFSET 0.0000 -9.0000 0.0000
          CHANNELS 3 Zrotation Xrotation Yrotation
          JOINT RightWrist
          {
            OFFSET -0.0000 -9.5000 0.0000
            CHANNELS 3 Zrotation Xrotation Yrotation
            End Site
            {
                OFFSET 0.0000 -5.0000 0.0000
            }
          }
        }
      }
    }
    JOINT Neck
    {
      OFFSET -0.0000 16.0000 1.0000
      CHANNELS 3 Zrotation Xrotation Yrotation
      JOINT Head
      {
        OFFSET 0.0000 6.0000 -0.0000
        CHANNELS 3 Zrotation Xrotation Yrotation
        End Site
        {
            OFFSET 0.0000 6.0000 0.0000
        }
      }
    }
  }
}
MOTION
Frames:	19
Frame Time:	0.016667
3.4228 34.2117 -5.5429 8.83 7.89 -161.70 -2.79 11.59 20.38 3.00 -8.35 0.00 4.91 43.44 -10.73 -7.38 -50.47 -36.48 177.00 71.83 180.00 22.28 62.53 -12.81 11.66 1.43 3.06 -1.61 -2.66 -0.07 34.84 -25.39 -26.86 -168.77 -77.55 -171.25 -25.08 8.26 73.31 -1.61 -2.66 -0.07 -23.07 -44.97 53.78 7.28 -66.68 11.94 23.02 17.20 -62.23 -1.87 7.02 0.33 7.11 -13.02 -1.91 
3.6543 34.2679 -5.8000 9.76 7.29 -165.81 -2.30 11.59 20.28 3.00 -8.22 0.00 5.75 42.75 -10.90 -9.26 -50.30 -38.65 177.00 69.90 180.00 21.65 62.82 -11.73 12.31 1.43 3.49 -1.85 -2.66 -0.09 34.13 -26.05 -27.66 -168.99 -77.24 -171.46 -24.77 7.46 75.03 -1.85 -2.66 -0.09 -22.91 -46.36 56.19 8.43 -68.66 13.00 22.66 17.52 -64.97 -4.71 7.68 0.82 12.45 -13.13 -9.84 
3.8964 34.3211 -5.8043 10.44 6.68 -169.75 -2.06 11.05 20.27 3.00 -7.63 0.00 7.01 41.98 -10.86 -10.25 -50.19 -39.82 177.00 67.86 180.00 20.41 63.54 -9.88 12.79 1.43 4.47 -2.10 -2.66 -0.10 33.67 -26.73 -28.33 -169.16 -76.97 -171.63 -24.07 7.34 76.59 -2.10 -2.66 -0.10 -22.96 -47.41 59.21 9.39 -70.07 13.90 21.78 16.90 -66.85 -7.61 8.85 1.32 17.29 -13.81 -16.70 
4.2260 34.3651 -5.9658 11.08 5.89 -175.05 -1.82 10.82 20.24 3.00 -6.93 0.00 8.17 41.14 -10.80 -11.49 -50.05 -40.77 177.00 65.40 180.00 18.70 64.07 -7.80 13.67 1.76 5.47 -2.58 -2.66 -0.12 33.69 -27.67 -28.97 -169.16 -76.98 -171.63 -23.32 6.93 78.26 -2.58 -2.66 -0.12 -22.58 -49.05 61.88 11.14 -72.22 15.56 20.69 16.71 -68.91 -10.82 10.47 1.87 23.71 -16.72 -24.28 
4.5560 34.4080 -6.0069 11.47 5.40 -179.17 -1.57 10.60 20.21 3.00 -6.19 0.00 8.91 40.56 -9.93 -12.13 -49.65 -41.18 177.00 64.23 180.00 16.30 64.22 -5.43 14.47 2.57 6.62 -3.14 -2.65 -0.15 33.31 -28.54 -29.77 -169.19 -76.94 -171.66 -23.08 6.86 79.80 -3.14 -2.65 -0.15 -22.52 -50.22 63.96 11.41 -72.51 15.82 19.93 15.96 -70.68 -13.77 12.35 2.37 28.83 -19.06 -29.33 
4.7677 34.4294 -6.0216 11.88 4.92 176.76 -1.41 10.60 20.18 3.00 -5.80 0.00 8.66 40.44 -9.18 -12.74 -49.15 -41.52 177.00 63.42 180.00 16.58 63.71 -4.93 15.43 3.15 7.86 -3.71 -2.81 -0.18 33.68 -29.36 -30.69 -169.15 -77.00 -171.62 -22.27 6.36 81.14 -3.71 -2.81 -0.18 -21.93 -51.37 65.23 13.00 -74.05 17.34 19.08 15.72 -71.75 -16.49 14.76 2.84 33.80 -22.21 -35.07 
5.0722 34.4787 -5.7360 12.41 4.27 171.08 -1.25 10.60 20.15 3.00 -5.88 0.00 9.02 39.89 -9.33 -13.04 -48.89 -41.68 177.00 63.48 180.00 14.60 64.10 -2.87 16.70 4.12 9.19 -4.68 -3.05 -0.25 34.02 -30.09 -31.32 -168.92 -77.33 -171.40 -21.80 6.45 82.11 -4.68 -3.05 -0.25 -21.32 -52.52 67.22 13.48 -74.47 17.81 18.55 15.59 -72.65 -18.84 17.11 3.24 37.95 -25.92 -40.35 
5.2875 34.4722 -5.8995 12.73 3.60 166.68 -1.24 11.03 20.11 3.00 -5.94 0.00 9.09 40.27 -9.37 -13.04 -48.89 -41.68 177.00 63.73 180.00 13.79 64.34 -2.09 17.73 5.26 10.76 -5.48 -3.05 -0.29 34.28 -30.64 -32.18 -168.81 -77.50 -171.29 -21.17 6.86 82.72 -5.48 -3.05 -0.29 -20.88 -53.22 68.04 15.31 -75.85 19.58 17.94 14.85 -73.47 -20.35 18.89 3.51 40.94 -28.23 -44.34 
5.5221 34.4813 -5.9385 12.93 2.82 162.41 -1.24 11.03 20.11 3.00 -5.53 0.00 10.76 39.48 -11.35 -13.13 -49.20 -42.01 177.00 64.12 180.00 12.77 64.29 -1.09 18.86 5.52 12.33 -6.29 -3.28 -0.36 34.79 -30.88 -32.53 -168.15 -78.36 -170.64 -20.66 6.75 83.23 -6.29 -3.28 -0.36 -19.90 -53.98 69.86 16.77 -76.78 20.99 17.24 14.69 -74.06 -21.58 20.82 3.74 44.13 -29.52 -47.86 
5.8149 34.4848 -5.9853 13.03 1.48 156.81 -1.24 10.71 20.14 3.00 -5.03 0.00 12.05 38.98 -12.31 -13.07 -49.00 -41.90 177.00 64.41 180.00 12.76 64.29 -1.08 19.58 5.85 13.72 -7.02 -3.44 -0.42 35.20 -31.16 -32.51 -167.59 -79.01 -170.09 -20.53 6.83 83.40 -7.02 -3.44 -0.42 -19.34 -54.47 70.58 18.49 -77.73 22.67 16.87 14.30 -74.60 -22.30 22.16 3.88 46.14 -30.79 -50.56 
5.8688 34.5027 -5.7690 12.97 0.37 152.70 -1.26 9.63 20.23 3.00 -4.01 0.00 12.91 37.70 -11.91 -13.25 -48.76 -42.13 177.00 64.76 180.00 13.26 64.32 -1.66 20.46 5.86 14.88 -7.50 -3.43 -0.45 35.61 -31.44 -32.48 -166.76 -79.85 -169.28 -20.25 6.45 83.48 -7.50 -3.43 -0.45 -18.77 -54.96 71.33 19.67 -78.30 23.82 16.34 13.81 -75.22 -23.13 23.71 4.04 48.81 -30.83 -52.07 
5.9998 34.5006 -5.7860 12.81 -0.79 148.92 -1.27 8.87 20.30 3.00 -3.10 0.00 13.91 36.75 -11.78 -13.50 -47.98 -42.42 177.00 65.24 180.00 13.26 64.32 -1.66 21.10 5.87 15.39 -7.83 -3.43 -0.47 36.17 -31.23 -32.19 -165.75 -80.70 -168.29 -20.01 6.43 83.46 -7.83 -3.43 -0.47 -18.63 -55.61 72.15 22.45 -79.44 26.56 15.64 13.62 -75.77 -23.63 25.14 4.15 51.15 -31.38 -54.15 
6.1115 34.4993 -5.7789 12.53 -2.23 143.93 -1.28 8.22 20.35 3.00 -2.64 0.00 14.27 36.22 -11.69 -13.66 -47.32 -42.67 177.00 66.21 180.00 12.76 64.33 -1.56 21.74 6.12 16.38 -7.83 -3.43 -0.47 37.04 -31.11 -31.66 -164.60 -81.52 -167.15 -20.04 6.17 83.59 -7.83 -3.43 -0.47 -17.86 -56.12 73.64 23.76 -79.90 27.84 15.33 13.63 -76.20 -24.04 26.30 4.24 52.66 -31.80 -55.13 
6.1028 34.5300 -5.5081 12.22 -3.30 140.19 -1.12 7.46 20.39 3.00 -2.56 0.00 14.20 35.60 -11.58 -13.48 -46.71 -42.83 177.00 66.36 180.00 12.43 64.31 -1.17 22.13 6.77 16.79 -7.99 -3.59 -0.50 37.71 -30.85 -31.31 -163.67 -82.08 -166.22 -19.80 6.14 83.56 -7.99 -3.59 -0.50 -17.06 -56.63 74.25 25.78 -80.52 29.83 15.28 13.75 -76.41 -24.22 27.31 4.30 53.89 -32.84 -56.51 
6.2584 34.5337 -5.5042 11.87 -4.24 136.53 -1.12 7.45 20.39 3.00 -2.84 0.00 14.35 35.54 -11.57 -13.68 -45.73 -43.16 177.00 66.36 180.00 12.43 64.31 -1.17 22.45 6.77 17.21 -7.99 -3.59 -0.50 38.75 -29.79 -31.25 -162.81 -82.54 -165.37 -19.35 5.75 83.68 -7.99 -3.59 -0.50 -16.82 -57.07 75.65 27.31 -80.94 31.34 15.28 13.75 -76.41 -24.24 27.89 4.32 54.93 -33.41 -57.26 
6.4568 34.5357 -5.5085 11.36 -5.18 132.76 -1.12 7.45 20.39 3.00 -3.13 0.00 14.35 35.54 -11.57 -14.24 -45.65 -43.81 177.00 66.44 180.00 13.09 64.35 -1.94 22.77 6.78 17.70 -7.99 -3.59 -0.50 39.58 -29.13 -30.97 -162.14 -82.86 -164.71 -19.37 5.58 83.77 -7.99 -3.59 -0.50 -16.18 -57.55 76.14 29.34 -81.43 33.34 15.28 13.75 -76.41 -24.23 28.28 4.33 55.61 -33.36 -57.76 
6.7089 34.5379 -5.4958 10.53 -6.33 127.75 -1.12 7.45 20.39 3.00 -3.52 0.00 13.79 35.60 -11.56 -14.18 -45.45 -43.86 177.00 66.44 180.00 13.29 64.35 -1.98 23.18 6.78 17.88 -7.99 -3.59 -0.50 40.55 -27.99 -30.82 -161.40 -83.18 -163.98 -19.38 5.41 83.86 -7.99 -3.59 -0.50 -14.61 -58.32 78.08 30.94 -81.78 34.94 15.07 13.83 -76.57 -24.26 28.60 4.34 56.04 -33.40 -58.11 
6.9692 34.5318 -5.5075 9.77 -7.10 124.10 -1.12 7.45 20.39 3.00 -3.79 0.00 13.43 36.13 -11.65 -14.86 -45.35 -44.58 177.00 66.25 180.00 13.09 64.35 -1.94 23.34 6.78 18.12 -7.99 -3.59 -0.50 41.34 -27.03 -30.73 -160.35 -83.58 -162.94 -19.37 5.25 83.71 -7.99 -3.59 -0.50 -13.72 -58.80 79.82 30.81 -81.75 34.80 15.10 13.66 -76.65 -24.42 28.92 4.37 56.28 -33.37 -58.24 
7.0451 34.5090 -5.5767 8.96 -7.78 120.33 -1.37 7.46 20.43 3.00 -4.28 0.00 12.24 36.46 -11.88 -15.31 -45.28 -45.22 177.00 66.21 180.00 12.76 64.33 -1.56 23.58 6.79 18.69 -7.99 -3.59 -0.50 41.86 -26.30 -30.74 -159.18 -83.98 -161.77 -19.35 4.70 83.56 -7.99 -3.59 -0.50 -13.07 -59.48 81.02 30.99 -81.79 34.98 15.03 13.83 -76.92 -24.22 28.93 4.34 56.31 -33.41 -58.33 
